<svg xmlns="http://www.w3.org/2000/svg" viewBox="0 0 48 48" width="48" height="48">
  <path fill="#EA4335" d="M24 9.5c3.54 0 6.71 1.22 9.21 3.6l6.85-6.85C35.9 2.38 30.47 0 24 0 14.62 0 6.51 5.38 2.56 13.22l7.98 6.19C12.43 13.72 17.74 9.5 24 9.5z"/>
  <path fill="#4285F4" d="M46.5 24c0-1.63-.15-3.2-.42-4.73H24v9h12.75C34.9 31.8 30.47 35 24 35c-6.26 0-11.57-4.22-13.46-9.91l-7.98 6.19C6.51 42.62 14.62 48 24 48c13.25 0 24-10.75 24-24 0-1.12-.08-2.22-.22-3.3H24v3.3h22.5z"/>
  <path fill="#FBBC05" d="M10.54 28.59c-.48-1.45-.76-2.99-.76-4.59s.27-3.14.76-4.59l-7.98-6.19C.92 16.46 0 20.12 0 24s.92 7.54 2.56 10.78l7.98-6.19z"/>
  <path fill="#34A853" d="M24 38.5c-6.26 0-11.57-4.22-13.46-9.91l-7.98 6.19C6.51 42.62 14.62 48 24 48c6.48 0 11.91-2.13 15.89-5.81l-7.4-5.74c-2.11 1.34-4.81 2.05-8.49 2.05z"/>
</svg>
